<svg width="1440" height="1024" viewBox="0 0 1440 1024" fill="none" xmlns="http://www.w3.org/2000/svg">
<g clip-path="url(#clip0)">
<rect width="1440" height="1024" fill="white"/>
<rect x="1" width="1439" height="1024" fill="#659AEB"/>
<path fill-rule="evenodd" clip-rule="evenodd" d="M79.58 804.026C98.9045 803.104 108.821 827.252 122.7 840.737C134.209 851.919 147.842 861.08 153.686 876.027C159.76 891.567 158.477 908.392 155.572 924.823C152.224 943.751 151.781 966.876 135.747 977.466C119.715 988.055 98.745 973.694 79.58 975.014C58.1121 976.492 35.8204 996.903 17.5003 985.609C-0.566591 974.47 0.81432 947.195 0.0384718 925.977C-0.57602 909.171 6.26818 893.803 13.59 878.666C19.9314 865.555 29.7008 855.621 39.3458 844.712C52.2966 830.063 60.0555 804.957 79.58 804.026Z" stroke="white"/>
<path fill-rule="evenodd" clip-rule="evenodd" d="M1405.58 -49.9744C1424.9 -50.8958 1434.82 -26.7476 1448.7 -13.2625C1460.21 -2.08069 1473.84 7.07968 1479.69 22.0275C1485.76 37.5666 1484.48 54.3922 1481.57 70.8225C1478.22 89.7511 1477.78 112.876 1461.75 123.466C1445.72 134.055 1424.75 119.694 1405.58 121.014C1384.11 122.492 1361.82 142.903 1343.5 131.609C1325.43 120.47 1326.81 93.1949 1326.04 71.9766C1325.42 55.1712 1332.27 39.803 1339.59 24.6658C1345.93 11.5554 1355.7 1.62111 1365.35 -9.28819C1378.3 -23.9366 1386.06 -49.0434 1405.58 -49.9744Z" stroke="white"/>
<path fill-rule="evenodd" clip-rule="evenodd" d="M1405.58 884.026C1424.9 883.104 1434.82 907.252 1448.7 920.737C1460.21 931.919 1473.84 941.08 1479.69 956.027C1485.76 971.567 1484.48 988.392 1481.57 1004.82C1478.22 1023.75 1477.78 1046.88 1461.75 1057.47C1445.72 1068.06 1424.75 1053.69 1405.58 1055.01C1384.11 1056.49 1361.82 1076.9 1343.5 1065.61C1325.43 1054.47 1326.81 1027.19 1326.04 1005.98C1325.42 989.171 1332.27 973.803 1339.59 958.666C1345.93 945.555 1355.7 935.621 1365.35 924.712C1378.3 910.063 1386.06 884.957 1405.58 884.026Z" stroke="white"/>
<path fill-rule="evenodd" clip-rule="evenodd" d="M134.112 28.6129C138.031 47.5581 115.722 61.1148 104.563 76.9247C95.3104 90.0343 88.3851 104.928 74.5298 113.028C60.1264 121.449 43.3062 122.802 26.6239 122.491C7.40499 122.132 -15.5069 125.296 -28.4651 111.107C-41.4218 96.9199 -30.5021 73.9691 -34.7905 55.2435C-39.5942 34.2677 -63.2275 15.4269 -54.9242 -4.42868C-46.7356 -24.0099 -19.578 -26.8938 1.2605 -30.9648C17.7651 -34.1892 34.0118 -29.822 50.1046 -24.9471C64.0426 -20.7249 75.3772 -12.6219 87.6555 -4.79367C104.142 5.71768 130.151 9.47162 134.112 28.6129Z" stroke="white"/>
<path fill-rule="evenodd" clip-rule="evenodd" d="M542.807 211.002C562.559 211.27 574.692 232.355 588.496 246.526C599.89 258.224 608.226 271.311 615.704 285.843C624.812 303.543 639.266 320.447 636.699 340.198C633.976 361.151 620.064 380.444 601.997 391.312C584.582 401.787 563.114 396.879 542.807 396.676C522.75 396.475 500.927 401.636 484.468 390.137C467.914 378.572 461.795 357.134 457.816 337.298C454.192 319.231 456.01 300.625 463.104 283.625C469.777 267.636 483.423 256.934 496.215 245.279C510.828 231.963 523.065 210.736 542.807 211.002Z" stroke="white"/>
<path fill-rule="evenodd" clip-rule="evenodd" d="M284.68 41.6144C306.588 40.0382 331.939 36.2985 348.278 50.9508C364.479 65.4797 355.611 92.525 363.878 112.637C373.268 135.483 404.32 151.338 399.494 175.558C394.764 199.298 363.015 204.793 342.84 218.223C323.713 230.955 307.66 252.645 284.68 251.985C261.798 251.328 246.712 229.304 228.901 214.951C212.192 201.484 190.623 191.365 184.113 170.937C177.614 150.549 187.473 129.258 195.233 109.314C202.563 90.4739 211.277 71.8581 227.411 59.6467C243.761 47.2721 264.214 43.0869 284.68 41.6144Z" stroke="white"/>
<path fill-rule="evenodd" clip-rule="evenodd" d="M592.778 624.114C614.512 622.065 627.799 648.053 642.523 664.148C654.313 677.036 665.591 690.638 669.251 707.707C672.678 723.686 663.303 738.691 662.003 754.981C660.105 778.768 679.078 810.54 659.907 824.785C640.827 838.963 615.51 813.404 592.778 806.42C577.988 801.876 563.501 798.932 550.177 791.073C535.439 782.381 519.897 773.884 511.949 758.746C503.142 741.972 496.796 721.197 504.377 703.836C511.841 686.742 535.562 685.427 549.421 672.928C565.991 657.985 570.551 626.21 592.778 624.114Z" stroke="white"/>
<path fill-rule="evenodd" clip-rule="evenodd" d="M946.388 302.853C979.176 303.126 1013.23 286.703 1042.34 301.795C1072.97 317.673 1088.86 351.441 1101.83 383.43C1115.7 417.597 1132.84 455.965 1118.71 490.024C1104.76 523.666 1061.59 530.716 1031.97 551.878C1002.71 572.783 981.992 608.141 946.388 613.137C908.993 618.385 873.324 598.799 841.396 578.62C807.508 557.203 763.144 534.771 759.222 494.85C755.229 454.199 806.106 431.005 823.253 393.938C837.208 363.769 822.556 319.95 849.269 300.19C875.967 280.442 913.192 302.577 946.388 302.853Z" stroke="white"/>
<path fill-rule="evenodd" clip-rule="evenodd" d="M726.671 -75.3714C745.803 -78.2361 765.886 -71.09 780.81 -58.3983C795.277 -46.0959 798.138 -25.6465 805.872 -8.01823C814.877 12.5077 832.289 30.7659 829.75 53.1474C827.044 76.9989 811.031 97.6159 792.276 111.813C773.472 126.048 749.72 134.807 726.671 131.18C705.015 127.773 689.85 108.993 674.141 93.2259C660.678 79.7121 649.548 64.7806 642.579 46.7759C635.159 27.6053 624.741 5.91555 633.088 -12.8441C641.371 -31.4603 666.193 -32.6022 682.849 -43.731C698.189 -53.9802 708.589 -72.6642 726.671 -75.3714Z" stroke="white"/>
<path fill-rule="evenodd" clip-rule="evenodd" d="M36.5334 398.631C61.746 395.697 89.8553 375.503 110.368 390.462C130.886 405.425 114.304 440.372 125.222 463.308C139.064 492.384 189.1 507.946 181.149 539.154C173.409 569.537 124.838 561.16 96.7506 575.066C75.3168 585.678 59.9812 606.049 36.5334 610.753C9.36514 616.204 -19.2966 615.462 -44.2212 603.349C-72.2864 589.71 -101.384 569.768 -109.71 539.683C-117.961 509.867 -102.494 478.48 -86.0212 452.298C-72.2296 430.378 -49.5105 416.693 -25.7943 406.307C-6.1368 397.699 15.2193 401.111 36.5334 398.631Z" stroke="white"/>
<path fill-rule="evenodd" clip-rule="evenodd" d="M1037.57 1086.34C1062.55 1082.97 1075.2 1055.53 1096 1041.29C1117.74 1026.4 1154.75 1026.6 1161.87 1001.23C1169.04 975.638 1140.34 954.659 1126.68 931.861C1116.53 914.919 1108.48 896.797 1092.41 885.318C1076.44 873.906 1057.18 869.183 1037.57 868.203C1017.08 867.179 996.672 869.883 978.609 879.629C958.507 890.475 934.654 903.543 930.45 926.003C926.254 948.415 952.64 964.491 958.604 986.498C965.103 1010.48 951.027 1039.3 966.437 1058.79C982.611 1079.24 1011.74 1089.83 1037.57 1086.34Z" stroke="white"/>
<path fill-rule="evenodd" clip-rule="evenodd" d="M375.142 505.066C402.494 506.894 431.295 504.314 454.04 519.59C477.2 535.144 491.988 560.881 498.567 587.96C504.83 613.739 498.006 639.958 489.379 665.046C480.889 689.736 468.492 712.254 449.616 730.318C428.263 750.752 404.247 779.634 375.142 774.37C345.283 768.971 336.71 730.358 317.992 706.516C305.384 690.458 294.189 675.12 283.546 657.702C268.874 633.692 243.149 613.576 244.022 585.465C244.962 555.175 262.309 524.366 288.176 508.505C313.516 492.967 345.469 503.083 375.142 505.066Z" stroke="white"/>
<path fill-rule="evenodd" clip-rule="evenodd" d="M1110.22 -127.077C1135.58 -128.825 1165.28 -130.018 1183.02 -111.742C1200.55 -93.6767 1192.26 -64.0101 1195.69 -39.0197C1198.37 -19.4877 1204.51 -0.932535 1200.89 18.4467C1196.84 40.1117 1188.05 60.0928 1174.02 77.0455C1156.22 98.5572 1138.08 127.717 1110.22 127.998C1082.39 128.279 1064.7 98.5672 1045.48 78.344C1029.69 61.7275 1019.57 42.3164 1009.31 21.7917C996.883 -3.05188 971.836 -27.0754 979.395 -53.8188C986.938 -80.5088 1020.21 -88.6715 1044.34 -102.184C1065.35 -113.946 1086.23 -125.423 1110.22 -127.077Z" stroke="white"/>
<path fill-rule="evenodd" clip-rule="evenodd" d="M1310.6 512.202C1337.63 513.07 1364.37 518.137 1386.99 533.014C1410.43 548.43 1433.12 569.156 1439.01 596.649C1444.71 623.263 1424.3 646.978 1417.03 673.205C1409.28 701.139 1415.25 734.406 1395.06 755.148C1373.87 776.916 1340.38 788.255 1310.6 782.524C1282.17 777.055 1267.81 746.591 1246.79 726.622C1229.21 709.916 1208.72 696.955 1197.75 675.296C1185.27 650.639 1174.73 623.167 1180.74 596.176C1187.02 567.982 1206.36 543.644 1230.57 527.993C1253.99 512.845 1282.74 511.308 1310.6 512.202Z" stroke="white"/>
<path fill-rule="evenodd" clip-rule="evenodd" d="M426.293 848.113C453.244 849.459 476.037 866.519 496.796 883.821C516.345 900.115 530.234 920.721 541.079 943.786C553.473 970.143 569.82 997.536 563.657 1026.02C557.28 1055.49 535.736 1082.12 508.426 1094.68C482.858 1106.45 454.386 1090.58 426.293 1089.22C400.154 1087.95 373.408 1098.18 349.738 1086.98C323.504 1074.56 297.804 1053.62 291.2 1025.28C284.706 997.394 306.187 972.092 316.784 945.507C326.502 921.128 330.92 893.928 350.5 876.514C371.19 858.113 398.683 846.734 426.293 848.113Z" stroke="white"/>
<path fill-rule="evenodd" clip-rule="evenodd" d="M1366.17 199.013C1388.1 199.389 1410.52 203.421 1427.83 216.868C1444.84 230.072 1448.75 252.657 1459.36 271.377C1473.61 296.514 1509.59 317.772 1500.57 345.215C1491.54 372.683 1446.54 362.897 1423.52 380.431C1399.51 398.72 1396.01 442.92 1366.17 447.582C1337.12 452.121 1317.38 418.581 1294.1 400.654C1271.66 383.374 1244.93 370.455 1232.8 344.881C1219.73 317.332 1211.03 282.814 1225.49 255.973C1239.71 229.601 1275.16 225.985 1302.95 214.731C1323.58 206.378 1343.91 198.633 1366.17 199.013Z" stroke="white"/>
</g>
<defs>
<clipPath id="clip0">
<rect width="1440" height="1024" fill="white"/>
</clipPath>
</defs>
</svg>
